<svg xmlns="http://www.w3.org/2000/svg" viewBox="0 0 32 32" width="32" height="32">
  <path d="M16 16 C14 10, 8 2, 3 4 C-1 6, 1 14, 6 16 C9 17, 13 16, 16 16 Z" fill="#d4a0b0" opacity="0.9"/>
  <path d="M16 16 C13 18, 6 24, 4 28 C3 30, 6 31, 9 28 C12 25, 14 20, 16 16 Z" fill="#c48a9c" opacity="0.85"/>
  <path d="M16 16 C18 10, 24 2, 29 4 C33 6, 31 14, 26 16 C23 17, 19 16, 16 16 Z" fill="#d4a0b0" opacity="0.9"/>
  <path d="M16 16 C19 18, 26 24, 28 28 C29 30, 26 31, 23 28 C20 25, 18 20, 16 16 Z" fill="#c48a9c" opacity="0.85"/>
  <ellipse cx="16" cy="16" rx="1" ry="6" fill="#8a5068"/>
  <path d="M15.5 10 C14 7, 12 5, 11 4" stroke="#8a5068" stroke-width="0.7" fill="none" stroke-linecap="round"/>
  <path d="M16.5 10 C18 7, 20 5, 21 4" stroke="#8a5068" stroke-width="0.7" fill="none" stroke-linecap="round"/>
  <circle cx="11" cy="3.5" r="0.8" fill="#8a5068"/>
  <circle cx="21" cy="3.5" r="0.8" fill="#8a5068"/>
  <circle cx="10" cy="10" r="2" fill="#e8c0d0" opacity="0.5"/>
  <circle cx="22" cy="10" r="2" fill="#e8c0d0" opacity="0.5"/>
  <circle cx="9" cy="22" r="1.2" fill="#e8c0d0" opacity="0.4"/>
  <circle cx="23" cy="22" r="1.2" fill="#e8c0d0" opacity="0.4"/>
</svg>
